<svg width="22" height="25" viewBox="0 0 22 25" fill="none" xmlns="http://www.w3.org/2000/svg">
<path d="M11 0.822876V2.74316C11 2.74316 13.0456 3.70331 15.5 3.70331C17.9544 3.70331 20 2.74316 20 2.74316V0.822876H11ZM13.25 4.28933V6.10367H14V8.48621L12.5344 11.8645H5.86646C7.00645 12.9447 7.81256 14.8412 7.96631 17.0544C7.97756 17.1888 7.98893 17.3277 7.99268 17.4669L11.0073 18.187L10.9963 18.5996C10.9926 18.7244 10.9885 18.8498 10.981 18.9747C10.981 19.0179 10.9773 19.0562 10.9773 19.0994C10.8648 21.5765 10.2651 23.6743 9.18506 24.8265H17.375C18.5685 24.8265 19.7131 24.1437 20.557 22.9282C21.4009 21.7128 21.875 20.0644 21.875 18.3455C21.875 16.6266 21.4009 14.9782 20.557 13.7628C19.7131 12.5473 18.5685 11.8645 17.375 11.8645H15.9658L17 9.48199V6.10367H17.75V4.53875C17.0863 4.61076 16.3175 4.66345 15.5 4.66345C14.6825 4.66345 13.9137 4.50537 13.25 4.28933ZM3.6875 11.8645C1.805 11.8645 0.256074 14.3418 0.132324 17.4622L2.375 17.9376V18.3455C2.375 21.9172 4.14125 24.8265 6.3125 24.8265C8.32625 24.8265 10.0322 22.239 10.231 18.9793L8.25488 18.504C8.21363 20.4195 7.35875 21.946 6.3125 21.946C5.23625 21.946 4.36646 20.333 4.36646 18.3455C4.36646 16.358 5.23625 14.745 6.3125 14.745C6.47 14.745 6.62035 14.779 6.7666 14.8462C6.1441 13.0652 5 11.8645 3.6875 11.8645Z" fill="#1E1464"/>
</svg>
