<svg width="24" height="23" viewBox="0 0 24 23" fill="none" xmlns="http://www.w3.org/2000/svg">
<path d="M9.21002 0.440039C9.06565 0.443789 8.92502 0.483164 8.79002 0.545039C8.27065 0.785039 8.02315 1.39254 8.23502 1.92504L9.18002 4.29504L7.66502 6.90504L5.14502 7.25004L3.24002 5.42004L3.84002 2.61504C3.87377 2.32066 3.77627 2.01691 3.58502 1.79004C3.39377 1.56316 3.11627 1.41504 2.82002 1.40004H2.70002C2.1244 1.37379 1.63502 1.79191 1.57502 2.36004L0.975022 5.67504C0.931897 6.06879 1.03502 6.47004 1.27502 6.78504L3.97502 9.96504L2.83502 12.185C2.51065 12.8975 2.3794 13.6869 2.46002 14.465L3.28502 20.93C3.35065 21.5638 3.87752 22.04 4.51502 22.04C4.8619 22.04 5.19565 21.89 5.43002 21.635C5.6644 21.38 5.79002 21.035 5.76002 20.69L5.28002 14.84L5.76002 14.36L7.42502 16.67L6.75002 20.585C6.67315 20.9413 6.76127 21.3069 6.99002 21.59C7.21877 21.875 7.5544 22.04 7.92002 22.04C8.46752 22.04 8.93815 21.6688 9.07502 21.14L9.97502 16.985C10.0819 16.5763 10.0238 16.1413 9.82502 15.77L8.16002 12.65L8.97002 9.11004L11.34 5.24004C11.55 4.88754 11.5838 4.45066 11.43 4.07004L10.23 1.11504C10.1175 0.839413 9.90752 0.625664 9.63002 0.515039C9.49127 0.460664 9.3544 0.436289 9.21002 0.440039ZM21.93 0.440039C21.3938 0.417539 20.8856 0.771913 20.745 1.31004L19.77 3.87504L18.03 6.42504L14.88 7.16004C14.4375 7.25941 14.0513 7.48629 13.755 7.82004L11.82 10.13C11.595 10.3813 11.4281 10.6907 11.34 11.015L10.59 13.505C10.44 14.0638 10.7813 14.6413 11.34 14.795C11.8913 14.9488 12.465 14.6357 12.63 14.09L13.395 11.825L14.88 10.04C15.0094 10.8669 14.7375 12.4288 14.565 12.92L12.675 16.565C12.585 16.7375 12.5213 16.9269 12.48 17.12L11.55 20.6C11.475 20.9525 11.5613 21.3238 11.79 21.605C12.0169 21.8863 12.3581 22.04 12.72 22.04H12.855C13.4194 22.04 13.9125 21.6332 14.025 21.08L14.925 17.705L16.8 14.36L18.285 16.52L18.735 20.975C18.8044 21.5788 19.3125 22.04 19.92 22.04C20.2575 22.04 20.595 21.9013 20.82 21.65C21.0469 21.3988 21.1538 21.0557 21.12 20.72L20.685 16.07C20.6588 15.8244 20.595 15.5863 20.49 15.365L19.08 12.41C19.2206 11.9938 19.68 10.5707 19.68 8.60004L21.81 4.92504C21.8213 4.90816 21.8344 4.88379 21.84 4.86504L22.995 1.92504C23.0831 1.61941 23.0494 1.30066 22.89 1.02504C22.7306 0.749413 22.4644 0.546913 22.155 0.470039C22.0781 0.451289 22.0069 0.443789 21.93 0.440039ZM6.24002 2.36004C5.17877 2.36004 4.32002 3.21879 4.32002 4.28004C4.32002 5.34129 5.17877 6.20004 6.24002 6.20004C7.30127 6.20004 8.16002 5.34129 8.16002 4.28004C8.16002 3.21879 7.30127 2.36004 6.24002 2.36004ZM15.84 2.36004C14.7788 2.36004 13.92 3.21879 13.92 4.28004C13.92 5.34129 14.7788 6.20004 15.84 6.20004C16.9013 6.20004 17.76 5.34129 17.76 4.28004C17.76 3.21879 16.9013 2.36004 15.84 2.36004Z" fill="#1E1464"/>
</svg>
