<?xml version="1.0" encoding="UTF-8"?>
<!-- Generator: Adobe Illustrator 22.1.0, SVG Export Plug-In . SVG Version: 6.00 Build 0)  -->
<svg version="1.1" id="Layer_1" xmlns="http://www.w3.org/2000/svg" xmlns:xlink="http://www.w3.org/1999/xlink" x="0px" y="0px" viewBox="0 0 18.5 15" style="enable-background:new 0 0 18.5 15;" xml:space="preserve">
<style type="text/css">
	.st0{fill:#FFFFFF;}
</style>
<path class="st0" d="M16.3,2.4c0.8-0.5,1.4-1.2,1.6-2.1c-0.8,0.4-1.6,0.7-2.4,0.9C14.8,0.4,13.9,0,12.8,0c-1.1,0-2,0.4-2.7,1.1  C9.4,1.8,9,2.7,9,3.8c0,0.3,0,0.6,0.1,0.8C6,4.5,3.4,3.2,1.3,0.7C0.9,1.3,0.8,1.9,0.8,2.6c0,1.3,0.6,2.4,1.7,3.2  C1.8,5.7,1.2,5.5,0.8,5.3c0,1,0.3,1.8,0.8,2.5C2.2,8.4,2.9,8.9,3.8,9c-0.3,0.1-0.7,0.1-1,0.1c-0.3,0-0.5,0-0.7-0.1  c0.2,0.8,0.7,1.4,1.3,1.9c0.6,0.5,1.4,0.7,2.2,0.8c-1.4,1.1-2.9,1.6-4.7,1.6c-0.4,0-0.7,0-0.9,0C1.7,14.4,3.7,15,5.8,15  c2.2,0,4.1-0.6,5.8-1.7c1.7-1.1,2.9-2.5,3.7-4.1c0.8-1.6,1.2-3.3,1.2-5V3.7c0.8-0.6,1.4-1.2,1.9-2C17.8,2.1,17.1,2.3,16.3,2.4"/>
</svg>