<?xml version="1.0" encoding="UTF-8"?>
<!-- Generator: Adobe Illustrator 22.1.0, SVG Export Plug-In . SVG Version: 6.00 Build 0)  -->
<svg version="1.1" id="Layer_1" xmlns="http://www.w3.org/2000/svg" xmlns:xlink="http://www.w3.org/1999/xlink" x="0px" y="0px" viewBox="0 0 15 15" style="enable-background:new 0 0 15 15;" xml:space="preserve">
<style type="text/css">
	.st0{fill:#FFFFFF;}
</style>
<path class="st0" d="M7.5,5C6.1,5,5,6.1,5,7.5S6.1,10,7.5,10h0C8.9,10,10,8.9,10,7.5h0C10,6.1,8.9,5,7.5,5"/>
<path class="st0" d="M15,4.3C14.9,2,13,0.1,10.7,0L7.5,0l0,0L4.3,0C2,0.1,0.1,2,0,4.3l0,3.1l0,0l0,3.2C0.1,13,2,14.9,4.3,15l3.1,0  l0,0l3.2,0c2.4,0,4.3-1.9,4.3-4.3l0-3.1l0,0L15,4.3z M7.5,11.4c-2.1,0-3.9-1.7-3.9-3.9s1.7-3.9,3.9-3.9h0c2.1,0,3.8,1.7,3.9,3.9  C11.4,9.6,9.6,11.4,7.5,11.4 M11.4,4.4c-0.5,0-0.9-0.4-0.9-0.9c0-0.5,0.4-0.9,0.9-0.9h0c0.5,0,0.9,0.4,0.9,0.9  C12.2,4.1,11.9,4.4,11.4,4.4"/>
</svg>