<?xml version="1.0" encoding="UTF-8"?>
<!-- Generator: Adobe Illustrator 22.1.0, SVG Export Plug-In . SVG Version: 6.00 Build 0)  -->
<svg version="1.1" id="Glyph" xmlns="http://www.w3.org/2000/svg" xmlns:xlink="http://www.w3.org/1999/xlink" x="0px" y="0px" viewBox="0 0 12 12" style="enable-background:new 0 0 12 12;" xml:space="preserve">
<style type="text/css">
	.st0{fill:#FFFFFF;}
</style>
<path id="XMLID_223_" class="st0" d="M11.7,10.3L9.2,7.8C9.7,7,10,6,10,5c0-2.8-2.2-5-5-5S0,2.2,0,5s2.2,5,5,5c1,0,2-0.3,2.8-0.8  l2.5,2.5c0.4,0.4,1,0.4,1.4,0C12.1,11.3,12.1,10.7,11.7,10.3z M1.5,5c0-1.9,1.6-3.5,3.5-3.5S8.5,3.1,8.5,5S6.9,8.5,5,8.5  S1.5,6.9,1.5,5z"/>
</svg>