<?xml version="1.0" encoding="UTF-8"?>
<!-- Generator: Adobe Illustrator 22.1.0, SVG Export Plug-In . SVG Version: 6.00 Build 0)  -->
<svg version="1.1" id="Layer_1" xmlns="http://www.w3.org/2000/svg" xmlns:xlink="http://www.w3.org/1999/xlink" x="0px" y="0px" viewBox="0 0 21.4 15" style="enable-background:new 0 0 21.4 15;" xml:space="preserve">
<style type="text/css">
	.st0{fill:#FFFFFF;}
</style>
<path class="st0" d="M21,2.3c-0.2-0.9-1-1.6-1.9-1.9C17.4,0,10.7,0,10.7,0S4,0,2.3,0.4c-0.9,0.2-1.6,1-1.9,1.9C0,4,0,7.5,0,7.5  s0,3.5,0.4,5.2c0.2,0.9,1,1.6,1.9,1.9C4,15,10.7,15,10.7,15s6.7,0,8.4-0.4c0.9-0.2,1.6-1,1.9-1.9c0.4-1.7,0.4-5.2,0.4-5.2  S21.4,4,21,2.3 M8.6,10.7V4.3l5.6,3.2L8.6,10.7z"/>
</svg>