<?xml version="1.0" encoding="UTF-8"?>
<!-- Generator: Adobe Illustrator 22.1.0, SVG Export Plug-In . SVG Version: 6.00 Build 0)  -->
<svg version="1.1" id="Layer_1" xmlns="http://www.w3.org/2000/svg" xmlns:xlink="http://www.w3.org/1999/xlink" x="0px" y="0px" viewBox="0 0 15.1 15" style="enable-background:new 0 0 15.1 15;" xml:space="preserve">
<style type="text/css">
	.st0{fill:#FFFFFF;}
</style>
<path class="st0" d="M3.3,15H0.1V4.3h3.2V15z M15.1,15h-3.2V9.3c0-1.5-0.5-2.2-1.6-2.2C9.4,7,8.9,7.5,8.6,8.3V15H5.4  c0,0,0-9.6,0-10.7h2.5l0.2,2.1h0.1c0.7-1.1,1.7-1.8,3.2-1.8c1.1,0,2,0.3,2.7,1.1c0.7,0.8,1,1.8,1,3.2V15z"/>
<path class="st0" d="M1.7,0c0.9,0,1.7,0.7,1.7,1.6c0,0.9-0.7,1.6-1.7,1.6S0,2.5,0,1.6C0,0.7,0.7,0,1.7,0"/>
</svg>