<svg width="15" height="19" viewBox="0 0 15 19" fill="none" xmlns="http://www.w3.org/2000/svg">
<path d="M0.642857 18.666H10.2857V15.4449H0.642857V18.666ZM9 16.0891H9.64286V16.7333H9V16.0891ZM9 17.3776H9.64286V18.0218H9V17.3776ZM7.71428 16.0891H8.35714V16.7333H7.71428V16.0891ZM7.71428 17.3776H8.35714V18.0218H7.71428V17.3776ZM6.42857 16.0891H7.07143V16.7333H6.42857V16.0891ZM5.14286 16.0891H5.78571V16.7333H5.14286V16.0891ZM3.85714 16.0891H4.5V16.7333H3.85714V16.0891ZM3.85714 17.3776H7.07143V18.0218H3.85714V17.3776ZM2.57143 16.0891H3.21429V16.7333H2.57143V16.0891ZM2.57143 17.3776H3.21429V18.0218H2.57143V17.3776ZM1.28571 16.0891H1.92857V16.7333H1.28571V16.0891ZM1.28571 17.3776H1.92857V18.0218H1.28571V17.3776ZM6.10714 11.5796H5.68704L4.96382 13.5123H9.82189L9.09868 11.5796H8.67857C8.67857 11.9213 8.54311 12.249 8.30199 12.4907C8.06087 12.7323 7.73385 12.868 7.39286 12.868C7.05186 12.868 6.72484 12.7323 6.48372 12.4907C6.2426 12.249 6.10714 11.9213 6.10714 11.5796ZM14.0625 0.62793H0.723214C0.531474 0.628153 0.347652 0.704582 0.212071 0.840449C0.0764905 0.976317 0.000223306 1.16053 0 1.35267V9.00274H14.7857V1.35267C14.7855 1.16053 14.7092 0.976317 14.5736 0.840449C14.4381 0.704582 14.2542 0.628153 14.0625 0.62793ZM0 10.2106C0.000223306 10.4028 0.0764905 10.587 0.212071 10.7229C0.347652 10.8587 0.531474 10.9352 0.723214 10.9354H14.0625C14.2542 10.9352 14.4381 10.8587 14.5736 10.7229C14.7092 10.587 14.7855 10.4028 14.7857 10.2106V9.64696H0V10.2106ZM13.1786 15.767C12.9229 15.7673 12.6778 15.8692 12.497 16.0504C12.3163 16.2315 12.2146 16.4771 12.2143 16.7333V17.3776C12.2143 17.6338 12.3159 17.8796 12.4967 18.0608C12.6776 18.2421 12.9228 18.3439 13.1786 18.3439C13.4343 18.3439 13.6796 18.2421 13.8604 18.0608C14.0413 17.8796 14.1429 17.6338 14.1429 17.3776V16.7333C14.1426 16.4771 14.0409 16.2315 13.8601 16.0504C13.6793 15.8692 13.4342 15.7673 13.1786 15.767ZM13.5 17.3776H12.8571V16.4112H13.5V17.3776Z" fill="#1E1464"/>
</svg>
