<svg width="24" height="21" viewBox="0 0 24 21" fill="none" xmlns="http://www.w3.org/2000/svg">
<path d="M7.20005 0.199951C6.26645 0.199951 5.0638 0.410776 4.0438 0.615576C3.0238 0.819576 2.2063 1.02339 2.2063 1.02339C1.8495 1.11219 1.60005 1.43275 1.60005 1.79995V2.82183C1.12325 3.09943 0.800049 3.60875 0.800049 4.19995V16.2C0.800049 17.084 1.51605 17.7999 2.40005 17.7999H9.96567C10.2217 17.5984 10.5107 17.4242 10.8219 17.2906C11.5667 16.9722 12.2444 16.8072 13.0172 16.764L12.461 15.4749C12.1802 15.411 9.39205 14.6 7.20005 14.6C5.43845 14.6 3.52325 15.1287 3.20005 15.2031V2.44214C3.50805 2.36854 3.7139 2.31313 4.3563 2.18433C5.3363 1.98833 6.53365 1.79995 7.20005 1.79995C7.86645 1.79995 9.0638 1.98833 10.0438 2.18433C10.6862 2.31313 10.892 2.36854 11.2 2.44214V7.55464C11.5576 7.22824 11.9864 6.98013 12.4704 6.85933C12.5784 6.83293 12.6896 6.8323 12.8 6.8187V2.44214C13.108 2.36854 13.3139 2.31233 13.9563 2.18433C14.9363 1.98753 16.1336 1.79995 16.8 1.79995C17.4664 1.79995 18.6638 1.98833 19.6438 2.18433C20.287 2.31313 20.492 2.36934 20.8 2.44214V9.96245C20.9072 9.98405 21.014 10.0062 21.1188 10.0406C21.2452 9.96458 21.3795 9.89745 21.5219 9.83745C21.8387 9.70385 22.174 9.63589 22.5188 9.63589C22.7532 9.63589 22.9816 9.67044 23.2 9.72964V4.19995C23.2 3.60875 22.8768 3.09943 22.4 2.82183V1.79995C22.4 1.43275 22.1506 1.11299 21.7938 1.02339C21.7938 1.02339 20.9763 0.819576 19.9563 0.615576C18.9363 0.411576 17.7336 0.199951 16.8 0.199951C15.8664 0.199951 14.6638 0.410776 13.6438 0.615576C12.731 0.797976 12.148 0.942839 12 0.979639C11.852 0.942839 11.2691 0.797976 10.3563 0.615576C9.3363 0.410776 8.13365 0.199951 7.20005 0.199951ZM13.0938 8.37808C13.0142 8.38155 12.9346 8.39265 12.8547 8.41245C12.0403 8.61485 11.6325 9.4803 11.9485 10.2187L15.4922 18.4703C13.6034 18.3447 12.7868 18.1897 11.4516 18.7609C10.8436 19.0209 10.2268 19.605 10.5204 20.2906L10.6313 20.5499L13.9032 21H24V13.1546L23.436 11.8375C23.2248 11.3431 22.639 11.1037 22.1438 11.3125C21.911 11.4101 21.7571 11.5322 21.6563 11.6578C21.4891 11.8674 21.1771 11.8848 20.9563 11.7312C20.6643 11.528 20.2573 11.3987 19.7469 11.6171C19.4429 11.7475 19.2452 11.9355 19.1172 12.1187C18.9588 12.3459 18.6427 12.3633 18.4235 12.1937C18.1195 11.9585 17.6627 11.7908 17.0563 12.05C16.6883 12.2076 16.4733 12.4392 16.3469 12.664C16.2381 12.8568 15.963 12.8516 15.875 12.6484L14.4063 9.2437C14.1795 8.7138 13.6507 8.35374 13.0938 8.37808Z" fill="#1E1464"/>
</svg>
