<svg width="20" height="18" viewBox="0 0 20 18" fill="none" xmlns="http://www.w3.org/2000/svg">
<path d="M1.80664 0.5C0.754417 0.5 0 1.44594 0 2.47168V10V10.75V11.5V16.0283C0 17.0541 0.754417 18 1.80664 18H18.1924C19.2447 18 19.999 17.0537 19.999 16.0283V11.5H20V10.75V2.47168C20 1.44594 19.2456 0.5 18.1934 0.5H1.80664ZM4.75 4.25H9.25C9.8025 4.25 10.25 4.6975 10.25 5.25V6.75C10.25 7.3025 9.8025 7.75 9.25 7.75H4.75C4.1975 7.75 3.75 7.3025 3.75 6.75V5.25C3.75 4.6975 4.1975 4.25 4.75 4.25ZM13.25 5.5C13.664 5.5 14 5.836 14 6.25C14 6.664 13.664 7 13.25 7C12.836 7 12.5 6.664 12.5 6.25C12.5 5.836 12.836 5.5 13.25 5.5ZM16.25 5.5C16.664 5.5 17 5.836 17 6.25C17 6.664 16.664 7 16.25 7C15.836 7 15.5 6.664 15.5 6.25C15.5 5.836 15.836 5.5 16.25 5.5ZM1.5 11.5H3V14.75C2.99859 14.8494 3.01696 14.9481 3.05402 15.0403C3.09108 15.1325 3.1461 15.2164 3.21588 15.2872C3.28566 15.358 3.36882 15.4142 3.46051 15.4526C3.5522 15.4909 3.65061 15.5107 3.75 15.5107C3.84939 15.5107 3.9478 15.4909 4.03949 15.4526C4.13118 15.4142 4.21434 15.358 4.28412 15.2872C4.3539 15.2164 4.40892 15.1325 4.44598 15.0403C4.48304 14.9481 4.50141 14.8494 4.5 14.75V11.5H5.5V14.75C5.49859 14.8494 5.51696 14.9481 5.55402 15.0403C5.59108 15.1325 5.6461 15.2164 5.71588 15.2872C5.78566 15.358 5.86882 15.4142 5.96051 15.4526C6.0522 15.4909 6.15061 15.5107 6.25 15.5107C6.34939 15.5107 6.4478 15.4909 6.53949 15.4526C6.63118 15.4142 6.71434 15.358 6.78412 15.2872C6.8539 15.2164 6.90892 15.1325 6.94598 15.0403C6.98304 14.9481 7.00141 14.8494 7 14.75V11.5H8V14.75C7.99859 14.8494 8.01696 14.9481 8.05402 15.0403C8.09108 15.1325 8.1461 15.2164 8.21588 15.2872C8.28566 15.358 8.36882 15.4142 8.46051 15.4526C8.5522 15.4909 8.65061 15.5107 8.75 15.5107C8.84939 15.5107 8.9478 15.4909 9.03949 15.4526C9.13118 15.4142 9.21434 15.358 9.28412 15.2872C9.3539 15.2164 9.40892 15.1325 9.44598 15.0403C9.48304 14.9481 9.50141 14.8494 9.5 14.75V11.5H13V14.75C12.9986 14.8494 13.017 14.9481 13.054 15.0403C13.0911 15.1325 13.1461 15.2164 13.2159 15.2872C13.2857 15.358 13.3688 15.4142 13.4605 15.4526C13.5522 15.4909 13.6506 15.5107 13.75 15.5107C13.8494 15.5107 13.9478 15.4909 14.0395 15.4526C14.1312 15.4142 14.2143 15.358 14.2841 15.2872C14.3539 15.2164 14.4089 15.1325 14.446 15.0403C14.483 14.9481 14.5014 14.8494 14.5 14.75V11.5H15.5V14.75C15.4986 14.8494 15.517 14.9481 15.554 15.0403C15.5911 15.1325 15.6461 15.2164 15.7159 15.2872C15.7857 15.358 15.8688 15.4142 15.9605 15.4526C16.0522 15.4909 16.1506 15.5107 16.25 15.5107C16.3494 15.5107 16.4478 15.4909 16.5395 15.4526C16.6312 15.4142 16.7143 15.358 16.7841 15.2872C16.8539 15.2164 16.9089 15.1325 16.946 15.0403C16.983 14.9481 17.0014 14.8494 17 14.75V11.5H18.499V16.0283C18.499 16.353 18.3081 16.5 18.1924 16.5H1.80664C1.69186 16.5 1.5 16.3526 1.5 16.0283V11.5Z" fill="#1E1464"/>
</svg>
