<svg width="20" height="19" viewBox="0 0 20 19" fill="none" xmlns="http://www.w3.org/2000/svg">
<path d="M19.3301 4.12335L18.1909 0.98722C17.907 0.206095 17.0452 -0.19103 16.2637 0.0913453C14.3006 0.80047 10.602 2.51235 6.86961 6.24472C3.13723 9.9771 1.42498 13.6753 0.715857 15.6385C0.433482 16.42 0.830607 17.2821 1.61173 17.5656L4.74786 18.7048C5.05836 18.8177 5.40561 18.7142 5.60398 18.4498L8.28448 14.8761C8.49523 14.5948 8.48286 14.2048 8.25411 13.9382L6.39561 11.77C6.39561 11.77 7.17223 10.183 8.99023 8.36497C10.8082 6.54697 12.3952 5.77035 12.3952 5.77035L14.5635 7.62885C14.8305 7.8576 15.2205 7.87035 15.5014 7.65922L19.0751 4.97872C19.3391 4.7811 19.4426 4.43347 19.3301 4.12335Z" fill="#1C175F"/>
</svg>
