<svg width="25" height="24" viewBox="0 0 25 24" fill="none" xmlns="http://www.w3.org/2000/svg">
<path d="M13.5 0C12.837 0 12.2011 0.263392 11.7322 0.732233C11.2634 1.20107 11 1.83696 11 2.5C11 3.16304 11.2634 3.79893 11.7322 4.26777C12.2011 4.73661 12.837 5 13.5 5C13.8283 5 14.1534 4.93534 14.4567 4.8097C14.76 4.68406 15.0356 4.49991 15.2678 4.26777C15.4999 4.03562 15.6841 3.76002 15.8097 3.45671C15.9353 3.15339 16 2.8283 16 2.5C16 1.83696 15.7366 1.20107 15.2678 0.732233C14.7989 0.263392 14.163 0 13.5 0ZM9.99414 6C9.5355 6.00323 9.07793 6.08073 8.63867 6.23438L5.88477 7.19727C5.66418 7.27448 5.4776 7.42651 5.35742 7.62695L3.14258 11.3027C3.07485 11.4153 3.02996 11.5402 3.01047 11.6701C2.99099 11.8001 2.9973 11.9326 3.02903 12.0601C3.06076 12.1876 3.1173 12.3076 3.19542 12.4133C3.27354 12.5189 3.3717 12.6082 3.48431 12.6759C3.59692 12.7436 3.72176 12.7885 3.85171 12.8079C3.98166 12.8274 4.11418 12.8211 4.24168 12.7893C4.36919 12.7576 4.4892 12.701 4.59484 12.6229C4.70049 12.5448 4.78972 12.4466 4.85742 12.334L5.39062 11.4473L6.73047 9.29688L8.81836 8.77344L5.13281 16.4434L5.15625 16.459L5.13086 16.5039C5.0098 16.7263 4.97751 16.9862 5.04051 17.2315C5.10351 17.4767 5.25711 17.6889 5.47036 17.8254C5.68361 17.9618 5.94066 18.0124 6.18971 17.9669C6.43876 17.9214 6.66131 17.7832 6.8125 17.5801L9.39844 14.9648L8.06641 22.6406L8.0625 22.6504C8.01657 22.7735 7.99534 22.9045 8.00002 23.0358C8.00471 23.1671 8.03522 23.2962 8.0898 23.4158C8.14439 23.5353 8.22199 23.6429 8.31817 23.7324C8.41434 23.822 8.52722 23.8917 8.65034 23.9376C8.77347 23.9835 8.90443 24.0048 9.03576 24C9.16708 23.9953 9.29619 23.9648 9.41572 23.9102C9.53524 23.8556 9.64284 23.778 9.73237 23.6818C9.8219 23.5856 9.8916 23.4727 9.9375 23.3496L14.7969 10.3301L20.3906 13.6113L20.4121 13.627C20.518 13.7085 20.6392 13.768 20.7684 13.8019C20.8977 13.8358 21.0325 13.8435 21.1648 13.8245C21.2971 13.8054 21.4242 13.7601 21.5387 13.6911C21.6531 13.6221 21.7526 13.5308 21.8312 13.4227C21.9098 13.3146 21.9659 13.1918 21.9963 13.0617C22.0266 12.9315 22.0306 12.7966 22.0079 12.6649C21.9852 12.5331 21.9364 12.4073 21.8642 12.2948C21.7921 12.1823 21.6981 12.0854 21.5879 12.0098L15.6504 7.69727C15.5676 7.63675 15.4761 7.58932 15.3789 7.55664L11.3535 6.21484C10.9125 6.06783 10.4528 5.99677 9.99414 6ZM2.5 19C1.83696 19 1.20107 19.2634 0.732233 19.7322C0.263392 20.2011 0 20.837 0 21.5C0 22.163 0.263392 22.7989 0.732233 23.2678C1.20107 23.7366 1.83696 24 2.5 24C3.16304 24 3.79893 23.7366 4.26777 23.2678C4.73661 22.7989 5 22.163 5 21.5C5 20.837 4.73661 20.2011 4.26777 19.7322C3.79893 19.2634 3.16304 19 2.5 19ZM22.9805 20.9902C22.7207 20.998 22.4741 21.1066 22.293 21.293C22.293 21.293 22.11 21.4749 21.8203 21.668C21.5307 21.8611 21.1667 22 21 22C20.8333 22 20.4278 21.8522 20.1094 21.6523C19.7909 21.4524 19.582 21.2617 19.582 21.2617C19.4848 21.1728 19.371 21.104 19.2472 21.0592C19.1233 21.0144 18.9918 20.9945 18.8602 21.0007C18.7287 21.0069 18.5996 21.039 18.4805 21.0952C18.3613 21.1514 18.2545 21.2305 18.166 21.3281C18.166 21.3281 17.3333 22 17 22C16.8333 22 16.4693 21.8611 16.1797 21.668C15.89 21.4749 15.707 21.293 15.707 21.293C15.5195 21.1055 15.2652 21.0002 15 21.0002C14.7348 21.0002 14.4805 21.1055 14.293 21.293C14.293 21.293 14.11 21.4749 13.8203 21.668C13.5307 21.8611 13.1667 22 13 22C12.8675 21.9981 12.7359 22.0226 12.613 22.072C12.49 22.1214 12.3781 22.1948 12.2837 22.2878C12.1893 22.3809 12.1144 22.4918 12.0632 22.614C12.0121 22.7363 11.9858 22.8675 11.9858 23C11.9858 23.1325 12.0121 23.2637 12.0632 23.386C12.1144 23.5082 12.1893 23.6191 12.2837 23.7122C12.3781 23.8052 12.49 23.8786 12.613 23.928C12.7359 23.9774 12.8675 24.0019 13 24C13.8333 24 14.4693 23.6389 14.9297 23.332C14.9714 23.3043 14.9608 23.3031 15 23.2754C15.0392 23.3031 15.0286 23.3043 15.0703 23.332C15.5307 23.6389 16.1667 24 17 24C17.8763 24 18.5301 23.649 18.9844 23.3008C19.0193 23.3238 19.0102 23.3246 19.0469 23.3477C19.5249 23.6478 20.1667 24 21 24C21.8333 24 22.4693 23.6389 22.9297 23.332C23.39 23.0251 23.707 22.707 23.707 22.707C23.8515 22.5666 23.9502 22.3857 23.9902 22.1882C24.0301 21.9907 24.0095 21.7857 23.931 21.6001C23.8524 21.4145 23.7197 21.257 23.55 21.1482C23.3804 21.0393 23.1819 20.9843 22.9805 20.9902Z" fill="#1E1464"/>
</svg>
