<svg width="22" height="23" viewBox="0 0 22 23" fill="none" xmlns="http://www.w3.org/2000/svg">
<path d="M16.3466 0.960048C16.1649 0.95467 15.9883 1.05328 15.9023 1.22536L15.4176 2.31099C15.2952 2.55531 15.4019 2.85306 15.6519 2.96442L16.4057 3.29911L15.8554 4.54599L15.6473 4.46067C15.3549 4.34211 15.1252 4.24898 14.8616 4.3613C14.5986 4.47362 14.5059 4.70566 14.3835 5.01286L12.6304 9.25505L16.9973 11.0025L18.7476 6.78474C19.0317 6.07242 18.9067 5.78358 18.1954 5.49942L17.8279 5.34942L18.3379 4.15786L19.0935 4.49349C19.3282 4.59765 19.6032 4.49886 19.7179 4.26942L20.2026 3.1838C20.325 2.939 20.2183 2.64172 19.9682 2.53036L16.5266 1.0013C16.468 0.975258 16.4072 0.96184 16.3466 0.960048ZM19.5341 7.39224L18.4157 10.0904C18.6893 10.4052 18.7849 10.897 18.6126 11.3222L17.7735 13.3257C17.8364 13.3218 17.899 13.3163 17.9629 13.3163C18.9829 13.3163 19.8929 13.7902 20.4876 14.5285L21.2394 12.7332C22.042 10.7508 21.2794 8.51448 19.5341 7.39224ZM12.2826 10.1504L12.0116 10.8797C11.9689 10.9949 11.972 11.1222 12.021 11.235L12.5423 12.4519C12.5922 12.569 12.6862 12.6618 12.8048 12.7088L14.5419 13.4025C14.5991 13.4256 14.6587 13.4363 14.7191 13.4363C14.7835 13.4363 14.848 13.4238 14.9085 13.3979L16.1263 12.8766C16.2473 12.8253 16.3409 12.7272 16.3869 12.6038L16.6494 11.896L12.2826 10.1504ZM2.84195 10.56C2.77834 10.5591 2.71519 10.5709 2.65617 10.5946C2.59714 10.6183 2.54342 10.6536 2.49812 10.6982C2.45283 10.7429 2.41686 10.7961 2.39231 10.8548C2.36775 10.9135 2.35511 10.9764 2.35511 11.04C2.35511 11.1037 2.36775 11.1666 2.39231 11.2253C2.41686 11.284 2.45283 11.3372 2.49812 11.3819C2.54342 11.4265 2.59714 11.4618 2.65617 11.4855C2.71519 11.5092 2.77834 11.5209 2.84195 11.52H3.32195V14.2997L0.591011 20.5425C0.182092 21.4778 0.889228 22.56 1.91007 22.56H8.96945C10.02 22.56 10.7276 21.4153 10.2576 20.476L7.16195 14.2866V11.52H7.64195C7.70555 11.5209 7.7687 11.5092 7.82773 11.4855C7.88675 11.4618 7.94048 11.4265 7.98577 11.3819C8.03107 11.3372 8.06704 11.284 8.09159 11.2253C8.11614 11.1666 8.12878 11.1037 8.12878 11.04C8.12878 10.9764 8.11614 10.9135 8.09159 10.8548C8.06704 10.7961 8.03107 10.7429 7.98577 10.6982C7.94048 10.6536 7.88675 10.6183 7.82773 10.5946C7.7687 10.5709 7.70555 10.5591 7.64195 10.56H2.84195ZM4.28195 11.52H6.20195V14.5135L7.1057 16.32H3.48601L4.28195 14.5004V11.52ZM9.56382 12.9554C9.37676 12.961 9.20234 13.0762 9.1307 13.2619C9.0347 13.5091 9.15725 13.7875 9.40445 13.8835L15.6182 16.2929C15.6463 16.3037 15.675 16.3035 15.7035 16.3088C15.6942 16.3924 15.6782 16.474 15.6782 16.56C15.6782 17.8191 16.7029 18.8438 17.9619 18.8438C19.221 18.8438 20.2457 17.8191 20.2457 16.56C20.2457 15.301 19.221 14.2763 17.9619 14.2763C17.1211 14.2763 16.3932 14.7386 15.9969 15.4172C15.9856 15.4118 15.9779 15.4022 15.966 15.3975L9.75132 12.9882C9.68952 12.9643 9.62618 12.9535 9.56382 12.9554ZM9.48414 16.8366L10.9054 19.68H17.0741C16.2265 19.4381 15.52 18.8593 15.1082 18.0985C14.8581 18.1993 14.504 18.2457 13.8829 18.2457C13.1696 18.2457 11.0684 17.4439 9.89289 16.9313C9.75945 16.8795 9.62238 16.8525 9.48414 16.8366ZM4.28195 17.76C4.54691 17.76 4.76195 17.9751 4.76195 18.24C4.76195 18.505 4.54739 18.72 4.28195 18.72C4.01699 18.72 3.80195 18.505 3.80195 18.24C3.80195 17.9751 4.01699 17.76 4.28195 17.76ZM5.96195 18.72C6.35939 18.72 6.68195 19.0426 6.68195 19.44C6.68195 19.8375 6.35987 20.16 5.96195 20.16C5.56451 20.16 5.24195 19.8375 5.24195 19.44C5.24195 19.0426 5.56451 18.72 5.96195 18.72ZM11.2944 20.64C11.4168 21.2314 11.312 21.851 10.9841 22.3819C10.9453 22.4443 10.9008 22.502 10.8576 22.56H21.0801C21.345 22.56 21.5601 22.345 21.5601 22.08C21.5601 21.2847 20.9154 20.64 20.1201 20.64H17.4304H17.3779H11.2944Z" fill="#1E1464"/>
</svg>
