<svg width="20" height="20" viewBox="0 0 20 20" fill="none" xmlns="http://www.w3.org/2000/svg">
<path d="M4.79999 0.800049C3.69686 0.800049 2.79999 1.69692 2.79999 2.80005C2.79999 3.90317 3.69686 4.80005 4.79999 4.80005C5.90311 4.80005 6.79999 3.90317 6.79999 2.80005C6.79999 1.69692 5.90311 0.800049 4.79999 0.800049ZM11.6 0.800049V1.60005H7.32499C7.49843 1.96411 7.59999 2.37036 7.59999 2.80005C7.59999 3.39536 7.41718 3.94536 7.09999 4.40005H11.4C12.3922 4.40005 13.2 5.20786 13.2 6.20005C13.2 7.19224 12.3922 8.00005 11.4 8.00005H7.99999V13.6H18.8C19.0219 13.6 19.2 13.4219 19.2 13.2V2.00005C19.2 1.77974 19.0219 1.60005 18.8 1.60005H12.4V0.800049H11.6ZM2.99999 5.20005C1.78749 5.20005 0.799988 6.18755 0.799988 7.40005V12.8C0.799988 13.2422 1.15936 13.6 1.59999 13.6C2.04061 13.6 2.39999 13.2422 2.39999 12.8V8.22505C2.39999 8.11724 2.49218 8.02505 2.59999 8.02505C2.7078 8.02505 2.79999 8.11724 2.79999 8.22505V18.125C2.79999 18.75 3.13593 19.2 3.76249 19.2C4.35468 19.2 4.79999 18.7407 4.79999 18.125V13.475C4.79999 13.3641 4.88905 13.275 4.99999 13.275C5.11093 13.275 5.19999 13.3641 5.19999 13.475V18.2375C5.20155 18.2407 5.21093 18.2344 5.21249 18.2375C5.26718 18.7907 5.68436 19.2 6.23749 19.2C6.86249 19.2 7.19999 18.75 7.19999 18.125V7.20005H11.4C11.9531 7.20005 12.4 6.75317 12.4 6.20005C12.4 5.64692 11.9531 5.20005 11.4 5.20005H6.21249L4.79999 8.00005L3.41249 5.20005H2.99999ZM11 14.4L9.19999 18H9.99999L11.8 14.4H11ZM12.2 14.4L14 18H14.8L13 14.4H12.2Z" fill="#1E1464"/>
</svg>
