<svg width="23" height="23" viewBox="0 0 23 23" fill="none" xmlns="http://www.w3.org/2000/svg">
<path d="M11.5 0.699797C5.54603 0.699797 0.699951 5.54588 0.699951 11.4998C0.699951 17.4537 5.54603 22.2998 11.5 22.2998C17.4539 22.2998 22.2999 17.4537 22.2999 11.4998C22.2999 7.77405 20.4081 4.47993 17.5292 2.53847L18.5611 1.21484L14.2 1.05663L15.4585 5.1998L16.4148 3.97109C18.6346 5.42226 20.1753 7.81808 20.4507 10.6016C20.221 10.6141 20.0048 10.7142 19.8465 10.8813C19.6883 11.0484 19.6001 11.2697 19.5999 11.4998C19.6001 11.7308 19.6891 11.9528 19.8484 12.12C20.0078 12.2872 20.2253 12.3868 20.456 12.398C20.0358 16.659 16.6591 20.0357 12.3982 20.4559C12.3869 20.2252 12.2874 20.0076 12.1202 19.8483C11.953 19.6889 11.7309 19.6 11.5 19.5998C11.269 19.6 11.0469 19.6889 10.8797 19.8483C10.7125 20.0076 10.613 20.2252 10.6017 20.4559C6.34075 20.0357 2.9641 16.659 2.5439 12.398C2.77459 12.3868 2.99212 12.2872 3.15146 12.12C3.31081 11.9528 3.39978 11.7308 3.39995 11.4998C3.39978 11.2688 3.31081 11.0468 3.15146 10.8796C2.99212 10.7124 2.77459 10.6128 2.5439 10.6016C2.99326 6.04486 6.82245 2.4998 11.5 2.4998C11.6192 2.50148 11.7376 2.47945 11.8483 2.43498C11.959 2.39051 12.0597 2.32448 12.1446 2.24074C12.2296 2.157 12.297 2.05722 12.343 1.94718C12.3891 1.83715 12.4128 1.71907 12.4128 1.5998C12.4128 1.48052 12.3891 1.36244 12.343 1.25241C12.297 1.14238 12.2296 1.04259 12.1446 0.958853C12.0597 0.875113 11.959 0.809088 11.8483 0.764616C11.7376 0.720144 11.6192 0.69811 11.5 0.699797ZM11.4859 5.18749C11.2475 5.19122 11.0203 5.28937 10.8542 5.46041C10.6881 5.63145 10.5967 5.8614 10.5999 6.0998V11.0498L7.3603 13.4791C7.16916 13.6222 7.0427 13.8354 7.00875 14.0718C6.97479 14.3081 7.03612 14.5483 7.17925 14.7394C7.32237 14.9306 7.53556 15.057 7.77193 15.091C8.00829 15.125 8.24846 15.0636 8.4396 14.9205L12.0396 12.2205C12.1515 12.1366 12.2424 12.0278 12.3049 11.9027C12.3675 11.7776 12.4 11.6397 12.4 11.4998V6.0998C12.4016 5.97939 12.3791 5.85987 12.3337 5.74832C12.2883 5.63678 12.221 5.53547 12.1358 5.4504C12.0506 5.36533 11.9491 5.29823 11.8375 5.25307C11.7259 5.20791 11.6063 5.18561 11.4859 5.18749Z" fill="#1C175F"/>
</svg>
