<svg width="18" height="19" viewBox="0 0 18 19" fill="none" xmlns="http://www.w3.org/2000/svg">
<path d="M4.32 0.62793C1.9575 0.62793 1.08 1.41005 1.08 3.51402V15.4191C1.08 15.9095 1.22344 16.2633 1.44 16.524V17.5837C1.44 18.1798 1.92516 18.666 2.52 18.666H3.96C4.55484 18.666 5.04 18.1798 5.04 17.5837V17.2229H12.96V17.5837C12.96 18.1798 13.4452 18.666 14.04 18.666H15.48C16.0748 18.666 16.56 18.1798 16.56 17.5837V16.524C16.7766 16.2633 16.92 15.9095 16.92 15.4191V3.87478C16.92 2.3035 16.7259 0.62793 14.4 0.62793H4.32ZM5.4 2.07097H12.96C13.1597 2.07097 13.32 2.23303 13.32 2.43174V3.15326C13.32 3.35196 13.1597 3.51402 12.96 3.51402H5.4C5.20172 3.51402 5.04 3.35196 5.04 3.15326V2.43174C5.04 2.23303 5.20172 2.07097 5.4 2.07097ZM3.96 4.5963H14.04C14.76 4.5963 15.12 4.95706 15.12 5.67859V10.0077C15.12 10.7292 14.4169 11.0675 14.04 11.0675L3.96 11.09C3.24 11.09 2.88 10.7292 2.88 10.0077V5.67859C2.88 4.95706 3.24 4.5963 3.96 4.5963ZM0.72 4.95706C0.323438 4.95706 0 5.28118 0 5.67859V8.56467C0 8.96208 0.323438 9.2862 0.72 9.2862V4.95706ZM17.28 4.95706V9.2862C17.678 9.2862 18 8.96208 18 8.56467V5.67859C18 5.28118 17.678 4.95706 17.28 4.95706ZM4.14 12.8938C4.83609 12.8938 5.4 13.4589 5.4 14.1565C5.4 14.854 4.83609 15.4191 4.14 15.4191C3.44391 15.4191 2.88 14.854 2.88 14.1565C2.88 13.4589 3.44391 12.8938 4.14 12.8938ZM13.86 12.8938C14.5561 12.8938 15.12 13.4589 15.12 14.1565C15.12 14.854 14.5561 15.4191 13.86 15.4191C13.1639 15.4191 12.6 14.854 12.6 14.1565C12.6 13.4589 13.1639 12.8938 13.86 12.8938Z" fill="#1E1464"/>
</svg>
