<svg width="20" height="22" viewBox="0 0 20 22" fill="none" xmlns="http://www.w3.org/2000/svg">
<path d="M1.37506 0.640625V1.625H6.48444V0.640625H1.37506ZM1.37506 2.1875V17.2275C1.37525 17.6381 1.53835 18.0318 1.82856 18.3222C2.11877 18.6127 2.51237 18.7761 2.92294 18.7766C2.95982 18.7766 2.99634 18.7839 3.0304 18.7981C3.06445 18.8122 3.09538 18.8329 3.12141 18.8591C3.14745 18.8852 3.16807 18.9162 3.1821 18.9503C3.19613 18.9844 3.2033 19.021 3.20319 19.0578V19.7695C3.20425 19.8057 3.19803 19.8419 3.1849 19.8757C3.17177 19.9095 3.15199 19.9403 3.12674 19.9664C3.10168 19.9922 3.07166 20.0126 3.03849 20.0264C3.00532 20.0402 2.96968 20.0472 2.93375 20.0469H2.12039C1.74551 20.0458 1.38222 20.1767 1.09422 20.4167C0.806234 20.6567 0.611936 20.9904 0.54541 21.3594H18.9971C18.9313 20.9906 18.7376 20.6568 18.4501 20.4165C18.1626 20.1763 17.7997 20.045 17.4251 20.0458C17.195 20.046 16.9671 20.001 16.7544 19.9131C16.5418 19.8252 16.3485 19.6963 16.1857 19.5337C16.0229 19.3712 15.8937 19.1781 15.8056 18.9656C15.7174 18.753 15.672 18.5252 15.6719 18.2951V17.8422C14.798 18.2767 13.835 18.5019 12.8591 18.5C9.34026 18.5 6.48444 15.6373 6.48444 12.1184V11.375H5.93311C5.85819 11.3772 5.78545 11.3497 5.7307 11.2985C5.67594 11.2473 5.64359 11.1766 5.64069 11.1017V9.11887C5.64351 9.04379 5.67577 8.97284 5.73049 8.92135C5.78521 8.86987 5.85799 8.84199 5.93311 8.84375H6.48444V2.1875H1.37506ZM7.04694 2.1875V6.125H8.54694V2.1875H7.04694ZM6.20319 9.40625V10.8125H19.4688V9.40625H6.20319ZM7.04694 11.375V12.1184C7.04694 15.3271 9.65075 17.9375 12.8594 17.9375C16.0681 17.9375 18.6719 15.3271 18.6719 12.1183V11.375H7.04694Z" fill="#1E1464"/>
</svg>
