<svg width="19" height="16" viewBox="0 0 19 16" fill="none" xmlns="http://www.w3.org/2000/svg">
<path d="M8.99998 0.166626C5.54831 0.166626 2.42296 1.56544 0.160461 3.82711L1.77993 5.44658C3.69909 3.72491 6.22498 2.66663 8.99998 2.66663C11.775 2.66663 14.3017 3.72407 16.22 5.44658L17.8379 3.82874C15.5762 1.56624 12.4516 0.166626 8.99998 0.166626ZM8.99998 4.33329C6.68415 4.33329 4.57252 5.2025 2.95669 6.62333L4.72426 8.39091C5.88343 7.42008 7.37415 6.83329 8.99998 6.83329C10.6258 6.83329 12.1174 7.41924 13.2757 8.39091L15.0416 6.62496C13.4266 5.20329 11.3158 4.33329 8.99998 4.33329ZM8.99998 8.49996C7.83331 8.49996 6.76245 8.90577 5.91079 9.57743L8.99998 12.6666L12.0892 9.57743C11.2375 8.90577 10.1666 8.49996 8.99998 8.49996ZM17.8216 10.0657L14.2441 13.6432L12.3333 11.7324L11.1549 12.9108L14.2441 16L19 11.2441L17.8216 10.0657Z" fill="#1E1464"/>
</svg>
