<svg width="18" height="20" viewBox="0 0 18 20" fill="none" xmlns="http://www.w3.org/2000/svg">
<path d="M9 0C7.89453 0 7 0.894531 7 2C7 3.10547 7.89453 4 9 4C10.1055 4 11 3.10547 11 2C11 0.894531 10.1055 0 9 0ZM7.8125 5C6.59766 5 5.54688 5.75391 5.09375 6.8125L5.03125 6.9375L4.34375 9.625C4.25781 9.92969 3.96875 10.2188 3.5625 10.3438C3.55469 10.3477 3.53906 10.3398 3.53125 10.3438L0.75 11.0312L1.25 12.9688L4.03125 12.2812H4.0625V12.25C5.03906 11.9688 5.9375 11.2734 6.25 10.1875V10.1562H6.28125L6.5 9.28125V12L5 12.4062L7.375 14.1562L4.3125 13.0938C3.8125 12.8945 3.19922 13.1875 3 13.6875C2.80078 14.1875 3.09375 14.8008 3.59375 15L5.9375 15.7812L5 16.0938L5.6875 18L14.3125 15C14.8125 14.8008 15.1055 14.2891 14.9062 13.6875C14.707 13.1875 14.1953 12.8945 13.5938 13.0938L10.625 14.125L13 12.4062L11.5 12V9.28125L11.7188 10.1562H11.75V10.1875C12.0195 11.1367 12.7891 12.0547 13.9688 12.25V12.2812L16.75 12.9688L17.25 11.0312L14.4375 10.3438L14.375 10.3125H14.3125C13.957 10.2695 13.7773 10.0586 13.6562 9.65625V9.625L12.9688 6.9375L12.9062 6.8125C12.4531 5.75391 11.4023 5 10.1875 5H7.8125ZM13 16.0938L9.90625 17.1875L12.3125 18L13 16.0938ZM1 19V20H17V19H1Z" fill="#1F1463"/>
</svg>
